<?xml version="1.0" encoding="UTF-8" standalone="no"?>
<!-- Created with Inkscape (http://www.inkscape.org/) -->

<svg
   xmlns:dc="http://purl.org/dc/elements/1.1/"
   xmlns:cc="http://creativecommons.org/ns#"
   xmlns:rdf="http://www.w3.org/1999/02/22-rdf-syntax-ns#"
   xmlns:svg="http://www.w3.org/2000/svg"
   xmlns="http://www.w3.org/2000/svg"
   xmlns:sodipodi="http://sodipodi.sourceforge.net/DTD/sodipodi-0.dtd"
   xmlns:inkscape="http://www.inkscape.org/namespaces/inkscape"
   version="1.1"
   id="svg178364"
   xml:space="preserve"
   width="800"
   height="800"
   viewBox="0 0 800 800"
   sodipodi:docname="splash-clip-art-publicdomainvectors.org.svg"
   inkscape:version="0.92.4 (5da689c313, 2019-01-14)"><metadata
     id="metadata178370"><rdf:RDF><cc:Work
         rdf:about=""><dc:format>image/svg+xml</dc:format><dc:type
           rdf:resource="http://purl.org/dc/dcmitype/StillImage" /><dc:title></dc:title></cc:Work></rdf:RDF></metadata><defs
     id="defs178368"><clipPath
       clipPathUnits="userSpaceOnUse"
       id="clipPath178380"><path
         d="M 0,600 H 600 V 0 H 0 Z"
         id="path178378"
         inkscape:connector-curvature="0" /></clipPath></defs><sodipodi:namedview
     pagecolor="#ffffff"
     bordercolor="#666666"
     borderopacity="1"
     objecttolerance="10"
     gridtolerance="10"
     guidetolerance="10"
     inkscape:pageopacity="0"
     inkscape:pageshadow="2"
     inkscape:window-width="797"
     inkscape:window-height="480"
     id="namedview178366"
     showgrid="false"
     inkscape:zoom="0.295"
     inkscape:cx="400"
     inkscape:cy="400"
     inkscape:window-x="0"
     inkscape:window-y="0"
     inkscape:window-maximized="0"
     inkscape:current-layer="g178372" /><g
     id="g178372"
     inkscape:groupmode="layer"
     inkscape:label="splash-clip-art-publicdomainvectors.org"
     transform="matrix(1.3333333,0,0,-1.3333333,0,800)"><g
       id="g178374"><g
         id="g178376"
         clip-path="url(#clipPath178380)"><path
           d="m 300.06,252.654 c -24.183,-3.937 -11.914,-69.161 -23.644,-97.855 -6.154,-15.052 -35.783,-24.548 -44.699,-4.147 -16.444,37.615 49.989,86.237 49.989,99.601 0,13.364 -9.451,18.459 -18.433,17.74 -31.719,-2.534 -38.633,-44.577 -58.485,-58.259 -31.142,-21.467 -64.297,19.304 -48.845,42.854 18.624,28.386 67.749,6.35 94.044,29.462 8.024,7.052 22.734,22.425 -0.77,36.863 -29.335,18.023 -48.943,-13.984 -83.859,-6.144 -28.73,6.451 -31.957,54.297 1.03,58.561 25.17,3.253 40.745,-24.007 69.467,-34.906 38.247,-14.515 49.623,18.297 44.698,34.56 -8.141,26.882 -40.706,33.946 -60.058,52.071 -17.802,16.674 1.028,51.623 37.479,42.395 24.269,-6.144 27.649,-25.191 22.733,-54.682 -4.918,-29.493 20.582,-54.684 32.1,-53.608 33.238,3.104 34.486,70.562 8,111.976 -25.048,39.168 4.539,74.347 37.623,73.73 49.308,-0.922 56.988,-48.386 42.394,-79.26 -11.847,-25.066 -76.633,-85.597 -56.988,-114.895 17.512,-26.113 40.246,9.064 43.164,31.95 2.359,18.507 2.74,32.121 18.43,35.637 20.738,4.645 33.64,-20.738 16.591,-37.941 -9.179,-9.263 -53.607,-27.408 -46.695,-49.152 3.424,-10.768 22.981,-7.108 34.713,-3.61 33.486,9.984 34.791,40.78 61.164,38.868 25.096,-1.821 31.69,-34.261 16.193,-44.456 -22.347,-14.707 -99.648,12.901 -109.843,-19.295 -4.377,-13.825 23.689,-27.06 39.552,-35.253 27.956,-14.439 52.842,-9.523 62.057,-31.027 14.008,-32.683 -28.109,-55.144 -43.623,-22.733 -14.428,30.145 -33.928,64.443 -62.826,63.898 -14.943,-0.282 -22.496,-11.519 -8.979,-28.11 16.762,-20.568 44.77,-47.463 43.543,-67.738 -1.181,-19.515 -27.185,-32.185 -40.55,-8.602 -10.446,18.432 18.125,46.695 -17.206,78.645 -10.035,9.075 -24.039,-9.216 -14.128,-23.347 7,-9.985 6.146,-25.332 -0.235,-29.185 -22.117,-13.364 -39.859,10.047 -23.115,26.726 12.623,12.576 8.58,32.019 -11.983,28.668"
           style="fill:#110f0d;fill-opacity:1;fill-rule:nonzero;stroke:none"
           id="path178382"
           inkscape:connector-curvature="0" /><path
           d="m 455.66,435.958 c 0,-9.163 -7.426,-16.589 -16.59,-16.589 -9.162,0 -16.588,7.426 -16.588,16.589 0,9.162 7.426,16.589 16.588,16.589 9.164,0 16.59,-7.427 16.59,-16.589"
           style="fill:#110f0d;fill-opacity:1;fill-rule:nonzero;stroke:none"
           id="path178384"
           inkscape:connector-curvature="0" /><path
           d="m 467.641,468.215 c 0,-3.818 -3.094,-6.914 -6.912,-6.914 -3.817,0 -6.913,3.096 -6.913,6.914 0,3.817 3.096,6.911 6.913,6.911 3.818,0 6.912,-3.094 6.912,-6.911"
           style="fill:#110f0d;fill-opacity:1;fill-rule:nonzero;stroke:none"
           id="path178386"
           inkscape:connector-curvature="0" /><path
           d="m 460.729,387.419 c 0,-3.817 -3.094,-6.912 -6.913,-6.912 -3.818,0 -6.912,3.095 -6.912,6.912 0,3.817 3.094,6.913 6.912,6.913 3.819,0 6.913,-3.096 6.913,-6.913"
           style="fill:#110f0d;fill-opacity:1;fill-rule:nonzero;stroke:none"
           id="path178388"
           inkscape:connector-curvature="0" /><path
           d="m 248.834,370.83 c 0,-3.818 -3.093,-6.912 -6.914,-6.912 -3.815,0 -6.909,3.094 -6.909,6.912 0,3.817 3.094,6.913 6.909,6.913 3.821,0 6.914,-3.096 6.914,-6.913"
           style="fill:#110f0d;fill-opacity:1;fill-rule:nonzero;stroke:none"
           id="path178390"
           inkscape:connector-curvature="0" /><path
           d="m 232.476,296.684 c 0,-3.819 -3.094,-6.912 -6.914,-6.912 -3.816,0 -6.911,3.093 -6.911,6.912 0,3.818 3.095,6.911 6.911,6.911 3.82,0 6.914,-3.093 6.914,-6.911"
           style="fill:#110f0d;fill-opacity:1;fill-rule:nonzero;stroke:none"
           id="path178392"
           inkscape:connector-curvature="0" /><path
           d="m 135.979,280.095 c 0,-3.818 -3.095,-6.912 -6.913,-6.912 -3.816,0 -6.911,3.094 -6.911,6.912 0,3.817 3.095,6.911 6.911,6.911 3.818,0 6.913,-3.094 6.913,-6.911"
           style="fill:#110f0d;fill-opacity:1;fill-rule:nonzero;stroke:none"
           id="path178394"
           inkscape:connector-curvature="0" /><path
           d="m 149.634,420.943 c 0,-3.818 -3.094,-6.913 -6.914,-6.913 -3.817,0 -6.911,3.095 -6.911,6.913 0,3.818 3.094,6.912 6.911,6.912 3.82,0 6.914,-3.094 6.914,-6.912"
           style="fill:#110f0d;fill-opacity:1;fill-rule:nonzero;stroke:none"
           id="path178396"
           inkscape:connector-curvature="0" /><path
           d="m 535.381,361.307 c 0,-8.652 -7.016,-15.667 -15.67,-15.667 -8.65,0 -15.666,7.015 -15.666,15.667 0,8.652 7.016,15.668 15.666,15.668 8.654,0 15.67,-7.016 15.67,-15.668"
           style="fill:#110f0d;fill-opacity:1;fill-rule:nonzero;stroke:none"
           id="path178398"
           inkscape:connector-curvature="0" /><path
           d="m 277.075,115.236 c 0,-9.925 -8.046,-17.971 -17.97,-17.971 -9.926,0 -17.973,8.046 -17.973,17.971 0,9.926 8.047,17.971 17.973,17.971 9.924,0 17.97,-8.045 17.97,-17.971"
           style="fill:#110f0d;fill-opacity:1;fill-rule:nonzero;stroke:none"
           id="path178400"
           inkscape:connector-curvature="0" /><path
           d="m 329.154,175.141 c 0,-4.835 -3.92,-8.754 -8.756,-8.754 -4.835,0 -8.753,3.919 -8.753,8.754 0,4.835 3.918,8.755 8.753,8.755 4.836,0 8.756,-3.92 8.756,-8.755"
           style="fill:#110f0d;fill-opacity:1;fill-rule:nonzero;stroke:none"
           id="path178402"
           inkscape:connector-curvature="0" /><path
           d="m 128.949,361.307 c 0,-10.179 -8.253,-18.432 -18.432,-18.432 -10.179,0 -18.432,8.253 -18.432,18.432 0,10.18 8.253,18.433 18.432,18.433 10.179,0 18.432,-8.253 18.432,-18.433"
           style="fill:#110f0d;fill-opacity:1;fill-rule:nonzero;stroke:none"
           id="path178404"
           inkscape:connector-curvature="0" /><path
           d="m 218.039,479.286 c 0,-9.163 -7.428,-16.59 -16.591,-16.59 -9.159,0 -16.587,7.427 -16.587,16.59 0,9.162 7.428,16.588 16.587,16.588 9.163,0 16.591,-7.426 16.591,-16.588"
           style="fill:#110f0d;fill-opacity:1;fill-rule:nonzero;stroke:none"
           id="path178406"
           inkscape:connector-curvature="0" /><path
           d="m 285.47,511.467 c 0,-9.163 -7.428,-16.591 -16.59,-16.591 -9.162,0 -16.589,7.428 -16.589,16.591 0,9.162 7.427,16.588 16.589,16.588 9.162,0 16.59,-7.426 16.59,-16.588"
           style="fill:#110f0d;fill-opacity:1;fill-rule:nonzero;stroke:none"
           id="path178408"
           inkscape:connector-curvature="0" /><path
           d="m 520.635,280.095 c 0,-9.162 -7.428,-16.589 -16.59,-16.589 -9.162,0 -16.59,7.427 -16.59,16.589 0,9.162 7.428,16.589 16.59,16.589 9.162,0 16.59,-7.427 16.59,-16.589"
           style="fill:#110f0d;fill-opacity:1;fill-rule:nonzero;stroke:none"
           id="path178410"
           inkscape:connector-curvature="0" /><path
           d="m 456.398,158.552 c 0,-7.263 -5.886,-13.149 -13.15,-13.149 -7.264,0 -13.148,5.886 -13.148,13.149 0,7.263 5.884,13.149 13.148,13.149 7.264,0 13.15,-5.886 13.15,-13.149"
           style="fill:#110f0d;fill-opacity:1;fill-rule:nonzero;stroke:none"
           id="path178412"
           inkscape:connector-curvature="0" /><path
           d="m 362.332,128.506 c 0,-9.163 -7.426,-16.589 -16.59,-16.589 -9.16,0 -16.588,7.426 -16.588,16.589 0,9.162 7.428,16.589 16.588,16.589 9.164,0 16.59,-7.427 16.59,-16.589"
           style="fill:#110f0d;fill-opacity:1;fill-rule:nonzero;stroke:none"
           id="path178414"
           inkscape:connector-curvature="0" /><path
           d="m 180.961,510.383 c 0,-6.447 -5.224,-11.673 -11.673,-11.673 -6.449,0 -11.673,5.226 -11.673,11.673 0,6.447 5.224,11.673 11.673,11.673 6.449,0 11.673,-5.226 11.673,-11.673"
           style="fill:#110f0d;fill-opacity:1;fill-rule:nonzero;stroke:none"
           id="path178416"
           inkscape:connector-curvature="0" /><path
           d="m 154.292,202.552 c 0,-7.891 -6.396,-14.287 -14.286,-14.287 -7.888,0 -14.284,6.396 -14.284,14.287 0,7.888 6.396,14.285 14.284,14.285 7.89,0 14.286,-6.397 14.286,-14.285"
           style="fill:#110f0d;fill-opacity:1;fill-rule:nonzero;stroke:none"
           id="path178418"
           inkscape:connector-curvature="0" /><path
           d="m 223.568,449.552 c 0,12.744 38.596,23.578 51.421,0.231 11.753,-21.395 -5.667,-46.402 6.026,-62.365 -20.737,19.509 -16.353,67.332 -57.447,62.134"
           style="fill:#1c1a19;fill-opacity:1;fill-rule:nonzero;stroke:none"
           id="path178420"
           inkscape:connector-curvature="0" /><path
           d="m 272.029,409.922 c -0.742,2.182 -1.746,6.159 -2.325,8.479 -5.279,21.223 -18.721,32.287 -36.959,35.643 4.723,3.88 13.878,5.339 17.242,5.339 7.604,0 16.204,-2.705 21.004,-11.444 5.149,-9.371 4.275,-21.71 3.099,-31.911 -0.179,-1.56 -1.557,-4.332 -2.061,-6.106"
           style="fill:#5f6062;fill-opacity:1;fill-rule:nonzero;stroke:none"
           id="path178422"
           inkscape:connector-curvature="0" /><path
           d="m 241.922,455.542 c 11.017,1.844 24.811,0.051 29.032,-13.748 2.886,-9.43 1.39,-17.509 0,-20.851 -0.692,16.51 -1.768,29.069 -29.032,34.599"
           style="fill:#f5f6f6;fill-opacity:1;fill-rule:nonzero;stroke:none"
           id="path178424"
           inkscape:connector-curvature="0" /><path
           d="m 173.761,213.733 c -12.744,0.202 -26.952,33.173 -3.467,45.747 16.393,8.778 50.699,-1.048 75.93,15.772 -19.833,-20.429 -78.17,-21.963 -72.463,-61.519"
           style="fill:#1c1a19;fill-opacity:1;fill-rule:nonzero;stroke:none"
           id="path178426"
           inkscape:connector-curvature="0" /><path
           d="m 199.566,255.437 c -21.302,-4.946 -28.036,-16.609 -31.681,-34.791 -3.977,1.958 -7.255,10.422 -7.205,13.787 0.103,6.364 1.999,16.573 10.816,21.233 9.45,4.998 20.282,4.921 30.462,3.586 1.556,-0.204 -0.062,-3.274 -2.392,-3.815"
           style="fill:#5f6062;fill-opacity:1;fill-rule:nonzero;stroke:none"
           id="path178428"
           inkscape:connector-curvature="0" /><path
           d="m 166.275,225.982 c -5.42,6.751 -2.688,25.345 11.175,29.35 9.472,2.737 16.995,2.925 20.312,1.481 -16.434,1.012 -29.491,-7.021 -31.487,-30.831"
           style="fill:#f5f6f6;fill-opacity:1;fill-rule:nonzero;stroke:none"
           id="path178430"
           inkscape:connector-curvature="0" /><path
           d="m 491.355,332.927 c 6.342,8.125 -9.835,38.671 -32.66,25.739 -12.418,-7.036 -21.123,-22.012 -33.14,-30.691 15.191,6.759 42.195,28.717 65.8,4.952"
           style="fill:#1c1a19;fill-opacity:1;fill-rule:nonzero;stroke:none"
           id="path178432"
           inkscape:connector-curvature="0" /><path
           d="m 442.873,338.766 c 13.928,10.898 32.322,9.484 45.615,2.548 -1.09,6.112 -4.082,10.4 -7.097,12.542 -4.707,3.34 -12.541,5.032 -21.065,1.645 -8.035,-3.191 -14.969,-8.823 -19.297,-15.91 -0.66,-1.081 0.321,-2.016 1.844,-0.825"
           style="fill:#5f6062;fill-opacity:1;fill-rule:nonzero;stroke:none"
           id="path178434"
           inkscape:connector-curvature="0" /><path
           d="m 485.219,345.64 c -2.307,8.409 -15.744,11.886 -26.942,7.274 -8.162,-3.363 -12.129,-8.062 -14.021,-10.615 9.568,8.188 20.006,14.546 40.963,3.341"
           style="fill:#f5f6f6;fill-opacity:1;fill-rule:nonzero;stroke:none"
           id="path178436"
           inkscape:connector-curvature="0" /><path
           d="m 463.955,202.213 c 10.988,-0.817 23.695,30.36 3.754,41.883 -16.809,9.714 -40.859,8.988 -53.867,20.096 15.482,-19.132 57.238,-26.883 50.113,-61.979"
           style="fill:#1c1a19;fill-opacity:1;fill-rule:nonzero;stroke:none"
           id="path178438"
           inkscape:connector-curvature="0" /><path
           d="m 468.793,208.664 c 2.562,3.571 5.025,10.217 5.242,13.119 0.41,5.486 -0.779,13.371 -7.431,18.85 -6.641,5.473 -21.311,8.949 -27.61,8.929 26.111,-9.102 28.078,-24.959 29.799,-40.898"
           style="fill:#5f6062;fill-opacity:1;fill-rule:nonzero;stroke:none"
           id="path178440"
           inkscape:connector-curvature="0" /><path
           d="m 470.119,215.327 c 3.469,5.665 3.469,22.195 -9.41,26.678 2.611,-2.868 10.33,-9.108 9.41,-26.678"
           style="fill:#f5f6f6;fill-opacity:1;fill-rule:nonzero;stroke:none"
           id="path178442"
           inkscape:connector-curvature="0" /><path
           d="m 335.389,522.705 c 2.65,14.401 40.547,20.937 55.605,-1.037 13.641,-19.906 7.018,-50.021 -9.57,-72.371 2.074,12.685 -4.942,78.606 -46.035,73.408"
           style="fill:#1c1a19;fill-opacity:1;fill-rule:nonzero;stroke:none"
           id="path178444"
           inkscape:connector-curvature="0" /><path
           d="m 384.648,482.603 c -0.742,2.182 -1.746,6.159 -2.324,8.479 -5.279,21.223 -18.72,33.784 -36.959,37.141 4.34,2.649 13.686,3.456 17.051,3.456 6.361,0 17.721,-1.184 23.893,-10.165 7.601,-11.059 4.533,-29.294 -1.661,-38.911"
           style="fill:#5f6062;fill-opacity:1;fill-rule:nonzero;stroke:none"
           id="path178446"
           inkscape:connector-curvature="0" /><path
           d="m 353.941,528.438 c 11.018,1.844 26.024,1.175 31.754,-12.069 3.916,-9.056 1.782,-19.262 0.393,-22.603 -0.692,16.51 -3.192,29.642 -32.147,34.672"
           style="fill:#f5f6f6;fill-opacity:1;fill-rule:nonzero;stroke:none"
           id="path178448"
           inkscape:connector-curvature="0" /><path
           d="m 297.71,359.276 c 0,0 0.459,-0.449 1.24,-1.262 0.191,-0.204 0.402,-0.431 0.634,-0.677 0.258,-0.215 0.534,-0.446 0.831,-0.693 0.591,-0.493 1.226,-1.059 2.021,-1.57 0.388,-0.265 0.789,-0.543 1.203,-0.829 0.439,-0.243 0.894,-0.496 1.363,-0.755 0.902,-0.573 1.99,-0.904 3.031,-1.392 1.106,-0.32 2.231,-0.739 3.422,-0.899 1.174,-0.286 2.399,-0.292 3.609,-0.347 l 1.811,0.117 c 0.602,0.026 1.176,0.224 1.762,0.323 0.592,0.093 1.146,0.288 1.689,0.494 0.539,0.22 1.121,0.332 1.6,0.648 0.5,0.27 0.992,0.537 1.472,0.796 0.465,0.29 0.873,0.645 1.303,0.952 0.889,0.58 1.504,1.385 2.19,2.02 0.662,0.66 1.093,1.413 1.589,2.004 0.508,0.589 0.774,1.212 1.057,1.69 0.547,0.969 0.889,1.526 0.889,1.526 0,0 -0.186,-0.609 -0.563,-1.678 -0.207,-0.527 -0.377,-1.209 -0.791,-1.888 -0.398,-0.683 -0.732,-1.548 -1.357,-2.316 -0.631,-0.756 -1.207,-1.699 -2.121,-2.405 -0.438,-0.374 -0.856,-0.799 -1.342,-1.16 -0.514,-0.32 -1.041,-0.648 -1.578,-0.981 -0.518,-0.371 -1.151,-0.54 -1.74,-0.813 -0.598,-0.267 -1.215,-0.506 -1.875,-0.618 -0.649,-0.126 -1.295,-0.347 -1.965,-0.392 l -2.014,-0.161 c -1.34,0.076 -2.689,0.117 -3.971,0.445 -1.308,0.192 -2.498,0.739 -3.671,1.139 -1.112,0.562 -2.223,1.035 -3.137,1.718 -0.469,0.32 -0.934,0.613 -1.362,0.926 -0.402,0.35 -0.787,0.689 -1.158,1.014 -0.771,0.608 -1.35,1.323 -1.866,1.927 -0.26,0.3 -0.501,0.58 -0.723,0.842 -0.192,0.279 -0.365,0.539 -0.525,0.769 -0.623,0.936 -0.957,1.486 -0.957,1.486"
           style="fill:#949595;fill-opacity:1;fill-rule:nonzero;stroke:none"
           id="path178450"
           inkscape:connector-curvature="0" /><path
           d="m 340.574,347.599 c 0,0 0.201,-0.539 0.508,-1.491 0.121,-0.494 0.49,-0.978 0.777,-1.573 0.262,-0.6 0.842,-1.167 1.28,-1.848 0.533,-0.626 1.15,-1.28 1.828,-1.922 0.721,-0.611 1.459,-1.264 2.33,-1.813 0.812,-0.632 1.795,-1.047 2.715,-1.589 0.992,-0.393 1.965,-0.902 3.025,-1.134 1.026,-0.368 2.094,-0.503 3.141,-0.673 0.525,-0.063 1.049,-0.034 1.568,-0.073 l 0.772,-0.031 0.753,0.09 c 0.5,0.061 0.991,0.12 1.471,0.178 0.469,0.13 0.924,0.259 1.371,0.383 0.223,0.061 0.446,0.123 0.664,0.182 0.203,0.097 0.403,0.192 0.6,0.285 0.4,0.185 0.787,0.365 1.158,0.535 0.738,0.363 1.309,0.872 1.895,1.226 0.601,0.344 0.963,0.824 1.334,1.152 0.711,0.686 1.148,1.074 1.148,1.074 0,0 -0.299,-0.48 -0.879,-1.309 -0.308,-0.396 -0.601,-0.967 -1.142,-1.428 -0.524,-0.471 -1.045,-1.127 -1.789,-1.608 -0.768,-0.43 -1.518,-1.113 -2.514,-1.402 -0.483,-0.183 -0.979,-0.372 -1.486,-0.566 -0.524,-0.135 -1.075,-0.205 -1.627,-0.313 l -0.846,-0.144 -0.861,-0.018 c -0.579,-0.003 -1.17,-0.051 -1.756,0.015 -1.168,0.162 -2.364,0.296 -3.5,0.68 -1.166,0.286 -2.221,0.852 -3.297,1.309 -1.008,0.594 -2.018,1.148 -2.869,1.869 -0.914,0.634 -1.645,1.433 -2.354,2.159 -0.678,0.753 -1.242,1.541 -1.717,2.282 -0.4,0.798 -0.863,1.451 -1.039,2.179 -0.199,0.697 -0.474,1.27 -0.502,1.772 -0.117,0.991 -0.16,1.565 -0.16,1.565"
           style="fill:#949595;fill-opacity:1;fill-rule:nonzero;stroke:none"
           id="path178452"
           inkscape:connector-curvature="0" /><path
           d="m 374.09,315.118 c 0,0 -0.449,-0.324 -1.258,-0.849 -0.408,-0.256 -0.912,-0.566 -1.387,-1.022 -0.476,-0.46 -1.084,-0.847 -1.599,-1.474 -0.537,-0.593 -1.157,-1.19 -1.655,-1.956 -0.257,-0.373 -0.558,-0.728 -0.8,-1.133 -0.231,-0.414 -0.467,-0.835 -0.705,-1.264 -0.479,-0.853 -0.823,-1.816 -1.168,-2.772 -0.145,-0.491 -0.288,-0.988 -0.432,-1.485 -0.109,-0.504 -0.166,-1.022 -0.254,-1.533 -0.117,-0.507 -0.123,-1.026 -0.144,-1.539 -0.014,-0.516 -0.084,-1.031 -0.004,-1.535 0.041,-0.509 0.082,-1.012 0.121,-1.507 0.107,-0.487 0.209,-0.97 0.31,-1.443 0.065,-0.488 0.299,-0.909 0.436,-1.354 0.168,-0.436 0.275,-0.895 0.519,-1.267 0.424,-0.786 0.811,-1.547 1.332,-2.143 0.448,-0.66 0.959,-1.175 1.438,-1.621 0.234,-0.23 0.455,-0.447 0.658,-0.646 0.232,-0.164 0.447,-0.312 0.641,-0.448 0.779,-0.544 1.224,-0.887 1.224,-0.887 0,0 -0.508,0.191 -1.408,0.58 -0.225,0.1 -0.473,0.213 -0.742,0.334 -0.248,0.164 -0.516,0.342 -0.801,0.531 -0.287,0.192 -0.594,0.398 -0.918,0.615 -0.312,0.229 -0.576,0.55 -0.889,0.845 -0.287,0.314 -0.652,0.6 -0.917,0.981 -0.266,0.384 -0.538,0.782 -0.819,1.19 -0.314,0.399 -0.486,0.882 -0.719,1.349 -0.212,0.477 -0.478,0.955 -0.593,1.487 -0.145,0.526 -0.291,1.059 -0.442,1.6 -0.09,0.553 -0.146,1.116 -0.207,1.686 -0.095,0.567 -0.035,1.141 -0.033,1.719 0.014,0.577 0.014,1.16 0.135,1.727 0.105,0.57 0.181,1.143 0.316,1.702 0.17,0.55 0.34,1.097 0.508,1.64 0.137,0.554 0.443,1.039 0.666,1.547 0.242,0.499 0.457,1.004 0.775,1.444 0.295,0.45 0.584,0.89 0.87,1.325 0.306,0.414 0.669,0.773 0.986,1.146 0.609,0.775 1.365,1.33 2.014,1.874 0.613,0.583 1.375,0.903 1.947,1.266 0.582,0.376 1.127,0.583 1.576,0.757 0.898,0.354 1.422,0.533 1.422,0.533"
           style="fill:#949595;fill-opacity:1;fill-rule:nonzero;stroke:none"
           id="path178454"
           inkscape:connector-curvature="0" /><path
           d="m 286.314,252.654 c 0,0 0.051,0.574 0.186,1.569 0.069,0.494 0.189,1.102 0.135,1.783 -0.008,0.337 -0.014,0.694 -0.021,1.072 0.013,0.373 -0.006,0.765 -0.093,1.176 -0.135,0.817 -0.212,1.704 -0.537,2.592 -0.209,0.916 -0.651,1.797 -1.072,2.717 -0.176,0.476 -0.528,0.875 -0.787,1.326 -0.277,0.44 -0.55,0.889 -0.91,1.288 -0.341,0.407 -0.661,0.839 -1.024,1.234 l -1.181,1.118 c -0.367,0.4 -0.843,0.681 -1.255,1.028 -0.422,0.341 -0.851,0.666 -1.328,0.923 -0.463,0.266 -0.902,0.571 -1.362,0.825 -0.474,0.231 -0.945,0.457 -1.406,0.679 -0.936,0.411 -1.878,0.748 -2.781,1.023 -0.917,0.207 -1.782,0.493 -2.613,0.559 -0.824,0.129 -1.585,0.228 -2.267,0.216 -0.684,0.025 -1.289,0.059 -1.774,-0.028 -0.983,-0.098 -1.57,-0.133 -1.57,-0.133 0,0 0.536,0.192 1.511,0.486 0.482,0.178 1.09,0.256 1.795,0.361 0.352,0.047 0.729,0.121 1.128,0.155 0.402,-10e-4 0.823,-10e-4 1.263,-10e-4 0.891,0.046 1.833,-0.13 2.842,-0.274 0.99,-0.201 2.044,-0.458 3.08,-0.86 0.515,-0.216 1.038,-0.431 1.567,-0.652 0.522,-0.243 1.016,-0.552 1.526,-0.842 0.52,-0.273 1.001,-0.618 1.471,-0.983 0.463,-0.373 0.989,-0.676 1.403,-1.112 l 1.278,-1.26 c 0.393,-0.446 0.747,-0.93 1.115,-1.39 0.391,-0.445 0.677,-0.962 0.955,-1.472 0.264,-0.516 0.613,-0.978 0.787,-1.52 0.2,-0.526 0.394,-1.044 0.585,-1.55 0.191,-0.505 0.238,-1.044 0.358,-1.542 0.269,-0.995 0.233,-1.977 0.254,-2.86 0.092,-0.882 -0.189,-1.706 -0.263,-2.408 -0.081,-0.717 -0.303,-1.279 -0.461,-1.757 -0.324,-0.949 -0.534,-1.486 -0.534,-1.486"
           style="fill:#949595;fill-opacity:1;fill-rule:nonzero;stroke:none"
           id="path178456"
           inkscape:connector-curvature="0" /><path
           d="m 350.813,252.949 c 0,0 -0.346,0.258 -0.948,0.714 -0.293,0.235 -0.65,0.52 -1.058,0.848 -0.391,0.354 -0.885,0.661 -1.403,1.007 -0.531,0.324 -1.037,0.76 -1.668,1.075 -0.636,0.297 -1.263,0.705 -1.961,0.967 -0.711,0.216 -1.416,0.564 -2.175,0.629 -0.375,0.047 -0.75,0.171 -1.131,0.165 l -1.137,-0.029 c -0.738,-0.111 -1.508,-0.196 -2.184,-0.534 -0.71,-0.246 -1.343,-0.661 -1.953,-1.062 -0.283,-0.233 -0.554,-0.47 -0.843,-0.686 -0.264,-0.238 -0.495,-0.505 -0.739,-0.748 -0.465,-0.501 -0.859,-1.037 -1.195,-1.539 -0.318,-0.521 -0.611,-1.004 -0.795,-1.471 -0.234,-0.451 -0.32,-0.874 -0.437,-1.226 -0.118,-0.354 -0.096,-0.64 -0.137,-0.84 -0.026,-0.203 -0.037,-0.312 -0.037,-0.312 0,0 -0.022,0.105 -0.063,0.302 -0.019,0.195 -0.156,0.501 -0.129,0.884 0.022,0.383 -0.017,0.877 0.129,1.396 0.08,0.545 0.27,1.131 0.53,1.755 0.263,0.615 0.593,1.28 1.056,1.909 0.238,0.309 0.467,0.641 0.736,0.955 0.297,0.29 0.602,0.585 0.911,0.887 0.681,0.522 1.39,1.116 2.273,1.435 0.826,0.425 1.785,0.586 2.713,0.73 h 1.418 c 0.471,-0.011 0.916,-0.154 1.369,-0.228 0.928,-0.111 1.695,-0.59 2.49,-0.899 0.78,-0.348 1.405,-0.887 2.049,-1.297 0.643,-0.417 1.117,-0.99 1.608,-1.428 1.007,-0.882 1.548,-1.798 2.021,-2.39 0.44,-0.616 0.69,-0.969 0.69,-0.969"
           style="fill:#949595;fill-opacity:1;fill-rule:nonzero;stroke:none"
           id="path178458"
           inkscape:connector-curvature="0" /><path
           d="m 263.963,291.033 c 0,0 0.299,0.603 0.862,1.632 0.257,0.524 0.691,1.114 0.96,1.874 0.303,0.736 0.645,1.569 1.019,2.476 0.255,0.949 0.631,1.945 0.871,3.028 0.177,1.102 0.474,2.236 0.483,3.444 0.151,1.2 -0.003,2.429 -0.072,3.677 -0.228,1.222 -0.408,2.487 -0.911,3.651 -0.188,0.603 -0.401,1.198 -0.725,1.739 -0.315,0.539 -0.517,1.15 -0.92,1.628 -0.36,0.505 -0.718,1.006 -1.072,1.5 -0.421,0.443 -0.838,0.879 -1.25,1.306 -0.379,0.466 -0.914,0.743 -1.339,1.128 -0.443,0.369 -0.882,0.726 -1.375,0.975 -0.477,0.277 -0.941,0.551 -1.389,0.814 -0.469,0.227 -0.945,0.404 -1.392,0.596 -0.881,0.423 -1.755,0.638 -2.525,0.858 -0.39,0.109 -0.753,0.211 -1.088,0.304 -0.345,0.051 -0.663,0.098 -0.95,0.139 -1.145,0.171 -1.817,0.297 -1.817,0.297 0,0 0.667,0.037 1.848,0.059 0.297,0.003 0.629,0.007 0.986,0.01 0.354,-0.04 0.74,-0.086 1.148,-0.134 0.825,-0.097 1.77,-0.18 2.744,-0.531 0.494,-0.152 1.02,-0.283 1.545,-0.471 0.509,-0.241 1.031,-0.489 1.568,-0.746 0.56,-0.23 1.066,-0.574 1.583,-0.935 0.507,-0.373 1.092,-0.679 1.544,-1.161 0.48,-0.454 0.963,-0.916 1.454,-1.384 0.428,-0.523 0.842,-1.076 1.256,-1.631 0.451,-0.534 0.7,-1.202 1.06,-1.806 0.366,-0.604 0.62,-1.26 0.841,-1.931 0.533,-1.312 0.721,-2.717 0.941,-4.077 0.078,-1.376 0.129,-2.731 -0.08,-4.023 -0.065,-1.31 -0.491,-2.507 -0.773,-3.653 -0.336,-1.132 -0.843,-2.136 -1.223,-3.081 -0.474,-0.916 -0.988,-1.712 -1.408,-2.421 -0.4,-0.73 -0.909,-1.231 -1.245,-1.713 -0.724,-0.923 -1.159,-1.437 -1.159,-1.437"
           style="fill:#949595;fill-opacity:1;fill-rule:nonzero;stroke:none"
           id="path178460"
           inkscape:connector-curvature="0" /><path
           d="m 96.538,365.455 c 0,0 0.089,0.685 0.501,1.827 0.416,1.134 1.152,2.749 2.528,4.405 1.337,1.663 3.404,3.365 6.056,4.32 2.63,1.013 5.731,1.157 8.588,0.628 l 1.037,-0.229 1.127,-0.32 c 0.707,-0.248 1.405,-0.524 2.07,-0.873 1.334,-0.687 2.527,-1.608 3.503,-2.645 0.998,-1.021 1.703,-2.209 2.247,-3.344 0.56,-1.135 0.873,-2.277 1.092,-3.319 0.429,-2.094 0.369,-3.844 0.26,-5.039 -0.123,-1.199 -0.285,-1.863 -0.285,-1.863 0,0 -0.135,0.674 -0.426,1.811 -0.291,1.13 -0.747,2.727 -1.525,4.463 -0.387,0.871 -0.888,1.755 -1.468,2.617 -0.578,0.87 -1.322,1.653 -2.13,2.374 -0.811,0.724 -1.776,1.293 -2.813,1.749 -0.513,0.239 -1.063,0.424 -1.619,0.592 l -0.8,0.218 -0.922,0.189 c -2.4,0.421 -4.796,0.401 -6.945,-0.132 -2.15,-0.55 -4.039,-1.589 -5.543,-2.738 -1.49,-1.157 -2.628,-2.353 -3.385,-3.236 -0.756,-0.887 -1.148,-1.455 -1.148,-1.455"
           style="fill:#949595;fill-opacity:1;fill-rule:nonzero;stroke:none"
           id="path178462"
           inkscape:connector-curvature="0" /><path
           d="m 129.066,205.533 c 0,0 0.04,0.534 0.325,1.425 0.306,0.874 0.78,2.169 1.821,3.461 1.007,1.297 2.596,2.602 4.608,3.295 0.997,0.353 2.078,0.578 3.176,0.634 1.117,0.054 2.168,0.027 3.337,-0.169 0.972,-0.18 2.156,-0.474 3.166,-0.95 1.025,-0.431 1.918,-1.083 2.739,-1.735 0.793,-0.687 1.466,-1.45 1.999,-2.238 0.565,-0.766 0.936,-1.593 1.253,-2.345 0.311,-0.76 0.477,-1.497 0.592,-2.147 0.102,-0.655 0.125,-1.227 0.124,-1.697 -0.031,-0.474 -0.079,-0.837 -0.151,-1.078 -0.059,-0.241 -0.091,-0.37 -0.091,-0.37 0,0 -0.002,0.131 -0.006,0.38 0.019,0.242 -0.056,0.601 -0.098,1.044 -0.087,0.443 -0.213,0.972 -0.418,1.558 -0.22,0.581 -0.518,1.211 -0.883,1.87 -0.383,0.648 -0.828,1.33 -1.391,1.967 -0.535,0.664 -1.219,1.243 -1.93,1.811 -0.747,0.523 -1.547,1.03 -2.444,1.358 -0.865,0.384 -1.73,0.591 -2.818,0.777 -0.898,0.122 -1.946,0.22 -2.889,0.176 -0.96,-0.044 -1.893,-0.168 -2.767,-0.414 -1.748,-0.493 -3.213,-1.426 -4.304,-2.455 -1.082,-1.037 -1.847,-2.091 -2.288,-2.881 -0.453,-0.788 -0.662,-1.277 -0.662,-1.277"
           style="fill:#949595;fill-opacity:1;fill-rule:nonzero;stroke:none"
           id="path178464"
           inkscape:connector-curvature="0" /><path
           d="m 426.477,441.64 c 0,0 0.169,0.56 0.671,1.452 0.514,0.874 1.299,2.148 2.612,3.372 1.289,1.231 3.097,2.447 5.291,3.115 2.183,0.706 4.689,0.792 7.066,0.373 2.481,-0.452 4.682,-1.743 6.322,-3.303 1.657,-1.56 2.801,-3.35 3.536,-4.968 0.738,-1.623 1.027,-3.1 1.086,-4.126 0.052,-1.039 -0.165,-1.597 -0.165,-1.597 0,0 0.065,0.588 -0.175,1.548 -0.207,0.966 -0.764,2.279 -1.645,3.7 -0.885,1.414 -2.101,2.962 -3.685,4.253 -1.563,1.3 -3.522,2.334 -5.586,2.694 -1.065,0.162 -2.16,0.273 -3.221,0.239 -1.063,-0.038 -2.102,-0.172 -3.086,-0.411 -1.967,-0.491 -3.685,-1.387 -5.035,-2.36 -1.34,-0.985 -2.371,-1.976 -3.008,-2.742 -0.648,-0.757 -0.978,-1.239 -0.978,-1.239"
           style="fill:#949595;fill-opacity:1;fill-rule:nonzero;stroke:none"
           id="path178466"
           inkscape:connector-curvature="0" /><path
           d="m 248.144,125.527 c 0,0 0.525,0.413 1.548,0.997 1.028,0.56 2.528,1.345 4.487,1.929 1.948,0.584 4.376,0.987 6.994,0.654 2.616,-0.308 5.339,-1.526 7.413,-3.451 0.537,-0.475 1.008,-0.954 1.468,-1.536 0.411,-0.521 0.828,-1.012 1.205,-1.643 0.819,-1.182 1.308,-2.44 1.725,-3.695 0.351,-1.269 0.589,-2.526 0.586,-3.725 0.041,-1.196 -0.073,-2.324 -0.289,-3.33 -0.393,-2.031 -1.165,-3.581 -1.755,-4.597 -0.304,-0.505 -0.578,-0.881 -0.785,-1.119 -0.201,-0.241 -0.307,-0.368 -0.307,-0.368 0,0 0.34,0.582 0.757,1.651 0.208,0.537 0.428,1.2 0.603,1.974 0.173,0.774 0.328,1.652 0.408,2.612 0.075,0.961 0.08,2.002 -0.042,3.082 -0.104,1.086 -0.396,2.192 -0.746,3.309 -0.432,1.078 -0.943,2.216 -1.628,3.184 -0.289,0.495 -0.733,1.007 -1.152,1.518 -0.368,0.444 -0.834,0.919 -1.279,1.333 -1.819,1.703 -4.116,2.811 -6.43,3.228 -2.316,0.44 -4.593,0.263 -6.507,-0.076 -1.917,-0.349 -3.501,-0.834 -4.583,-1.248 -1.085,-0.401 -1.691,-0.683 -1.691,-0.683"
           style="fill:#949595;fill-opacity:1;fill-rule:nonzero;stroke:none"
           id="path178468"
           inkscape:connector-curvature="0" /><path
           d="m 511.65,371.426 c 0,0 0.319,0.481 1.073,1.161 0.381,0.332 0.865,0.726 1.484,1.093 0.617,0.372 1.359,0.734 2.229,1.018 0.439,0.112 0.902,0.248 1.394,0.346 0.492,0.057 1.016,0.133 1.551,0.13 1.072,0.004 2.236,-0.109 3.355,-0.482 1.133,-0.347 2.243,-0.858 3.268,-1.512 0.492,-0.354 0.986,-0.711 1.482,-1.07 l 1.321,-1.235 0.324,-0.315 0.078,-0.08 0.135,-0.15 0.131,-0.158 0.525,-0.635 c 0.342,-0.369 0.729,-1.047 1.07,-1.556 0.637,-1.086 1.073,-2.231 1.344,-3.382 0.328,-1.139 0.33,-2.295 0.307,-3.348 -0.073,-1.059 -0.252,-2.037 -0.547,-2.89 -0.537,-1.72 -1.36,-2.964 -2.004,-3.743 -0.322,-0.392 -0.609,-0.668 -0.811,-0.847 -0.199,-0.177 -0.304,-0.273 -0.304,-0.273 0,0 0.215,0.538 0.465,1.46 0.253,0.924 0.511,2.251 0.572,3.787 0.041,0.766 -0.041,1.585 -0.121,2.417 -0.155,0.83 -0.34,1.682 -0.666,2.51 -0.285,0.839 -0.782,1.633 -1.26,2.405 -0.297,0.364 -0.436,0.66 -0.838,1.102 l -0.537,0.624 -0.137,0.156 c 0.006,-0.007 -0.107,0.124 -0.004,0.004 l -0.07,0.063 -0.271,0.257 -1.069,1.045 c -0.387,0.29 -0.756,0.603 -1.129,0.905 -0.781,0.538 -1.545,1.073 -2.363,1.418 -0.813,0.353 -1.625,0.629 -2.438,0.788 -0.812,0.138 -1.609,0.194 -2.367,0.189 -0.75,-0.058 -1.461,-0.125 -2.093,-0.252 -0.624,-0.141 -1.186,-0.274 -1.641,-0.421 -0.916,-0.285 -1.438,-0.529 -1.438,-0.529"
           style="fill:#949595;fill-opacity:1;fill-rule:nonzero;stroke:none"
           id="path178470"
           inkscape:connector-curvature="0" /><path
           d="m 495.711,289.804 c 0,0 0.295,0.548 1.16,1.177 0.85,0.618 2.162,1.423 3.928,1.965 1.75,0.555 3.978,0.828 6.316,0.37 2.342,-0.428 4.662,-1.711 6.465,-3.45 l 0.656,-0.672 c 0.282,-0.305 0.397,-0.481 0.602,-0.73 0.375,-0.424 0.73,-0.965 1.072,-1.526 0.678,-1.088 1.106,-2.239 1.379,-3.399 0.303,-1.152 0.35,-2.302 0.326,-3.372 -0.054,-1.068 -0.201,-2.068 -0.455,-2.955 -0.457,-1.789 -1.209,-3.133 -1.756,-4.024 -0.574,-0.889 -1.004,-1.311 -1.004,-1.311 0,0 0.293,0.526 0.676,1.477 0.192,0.477 0.399,1.064 0.578,1.75 0.168,0.689 0.348,1.462 0.45,2.317 0.23,1.7 0.187,3.71 -0.399,5.697 -0.285,0.988 -0.748,1.977 -1.305,2.866 -0.273,0.431 -0.558,0.873 -0.972,1.332 -0.174,0.203 -0.408,0.505 -0.535,0.627 l -0.586,0.6 c -1.59,1.561 -3.541,2.695 -5.549,3.208 -2.01,0.53 -4.026,0.486 -5.713,0.188 -1.691,-0.302 -3.086,-0.788 -3.992,-1.255 -0.451,-0.237 -0.807,-0.43 -1.026,-0.598 -0.218,-0.162 -0.316,-0.282 -0.316,-0.282"
           style="fill:#949595;fill-opacity:1;fill-rule:nonzero;stroke:none"
           id="path178472"
           inkscape:connector-curvature="0" /><path
           d="m 150.401,336.193 c 0,0 -0.164,0.37 -0.475,1.068 -0.268,0.716 -0.664,1.784 -0.918,3.206 -0.519,2.821 -0.631,7.119 1.023,11.927 0.822,2.385 2.078,4.911 4.015,7.18 1.911,2.259 4.501,4.327 7.654,5.439 3.101,1.183 6.687,1.424 9.978,0.976 3.288,-0.398 6.612,-1.192 9.759,-2.284 3.157,-1.103 6.177,-2.509 9.056,-4.021 2.889,-1.497 5.574,-3.219 8.135,-4.902 5.113,-3.39 9.604,-6.862 13.478,-9.762 3.878,-2.902 7.15,-5.225 9.566,-6.683 2.409,-1.467 3.89,-2.144 3.89,-2.144 0,0 -0.385,0.118 -1.116,0.336 -0.729,0.232 -1.796,0.584 -3.111,1.148 -2.639,1.101 -6.276,3.007 -10.427,5.57 -4.174,2.527 -8.891,5.663 -14.026,8.777 -5.144,3.083 -10.733,6.167 -16.656,8.211 -2.956,1.069 -5.953,1.825 -8.986,2.237 -2.997,0.46 -5.858,0.392 -8.484,-0.488 -2.613,-0.841 -4.91,-2.348 -6.698,-4.222 -1.786,-1.872 -3.151,-4.009 -4.097,-6.132 -1.918,-4.265 -2.351,-8.313 -2.242,-11.082 0.072,-1.394 0.235,-2.486 0.395,-3.225 0.185,-0.736 0.287,-1.13 0.287,-1.13"
           style="fill:#949595;fill-opacity:1;fill-rule:nonzero;stroke:none"
           id="path178474"
           inkscape:connector-curvature="0" /><path
           d="m 253.52,202.176 c 0,0 -0.794,-1.042 -2.079,-2.921 -1.307,-1.867 -3.018,-4.64 -4.948,-8.02 -1.942,-3.377 -3.933,-7.466 -5.772,-11.944 -1.811,-4.473 -3.387,-9.447 -3.789,-14.506 -0.197,-2.513 -0.104,-5.056 0.573,-7.389 0.354,-1.157 0.826,-2.26 1.458,-3.254 0.282,-0.461 0.696,-1.031 1.046,-1.491 0.364,-0.456 0.724,-0.913 1.135,-1.337 1.586,-1.72 3.444,-3.067 5.406,-3.917 1.969,-0.849 4.021,-1.193 5.917,-1.202 3.819,0.005 6.97,1.027 9.031,1.931 2.084,0.908 3.156,1.671 3.156,1.671 0,0 -0.969,-0.896 -2.999,-1.995 -2.017,-1.045 -5.118,-2.468 -9.167,-2.648 -2.008,-0.088 -4.238,0.166 -6.438,0.99 -2.196,0.815 -4.338,2.204 -6.071,4.073 -0.448,0.449 -0.862,0.953 -1.279,1.461 -0.408,0.525 -0.741,0.963 -1.131,1.563 -0.74,1.12 -1.298,2.365 -1.714,3.656 -0.795,2.6 -0.942,5.36 -0.76,8.036 0.519,5.363 2.237,10.429 4.157,14.971 1.944,4.547 4.265,8.533 6.356,11.861 2.096,3.332 4.115,5.921 5.548,7.702 1.452,1.775 2.364,2.709 2.364,2.709"
           style="fill:#949595;fill-opacity:1;fill-rule:nonzero;stroke:none"
           id="path178476"
           inkscape:connector-curvature="0" /><path
           d="m 381.123,163.391 c 0,0 0.719,0.04 1.969,0.049 0.613,0.074 1.314,0.259 2.084,0.365 0.387,0.131 0.801,0.271 1.236,0.42 0.432,0.133 0.883,0.265 1.326,0.512 0.444,0.213 0.903,0.436 1.381,0.665 0.444,0.299 0.914,0.577 1.387,0.874 0.492,0.259 0.914,0.673 1.371,1.036 0.445,0.376 0.939,0.705 1.346,1.167 0.418,0.438 0.879,0.843 1.283,1.314 0.377,0.499 0.762,0.996 1.164,1.479 0.408,0.482 0.676,1.076 1.043,1.597 l 0.516,0.809 0.402,0.875 c 0.258,0.587 0.607,1.134 0.801,1.748 0.207,0.606 0.416,1.211 0.621,1.811 0.328,1.223 0.64,2.453 0.816,3.667 0.043,1.227 0.36,2.416 0.264,3.565 -0.063,1.142 0.086,2.259 -0.088,3.266 -0.121,1.012 -0.195,1.959 -0.26,2.811 -0.152,0.835 -0.287,1.563 -0.394,2.165 -0.205,1.219 -0.295,1.946 -0.295,1.946 0,0 0.375,-0.601 0.986,-1.704 0.297,-0.553 0.678,-1.224 1.061,-2.021 0.306,-0.825 0.648,-1.764 0.984,-2.811 0.416,-1.029 0.523,-2.228 0.752,-3.481 0.289,-1.251 0.193,-2.617 0.225,-4.021 0.037,-0.71 -0.147,-1.414 -0.213,-2.14 -0.121,-0.717 -0.133,-1.471 -0.389,-2.178 -0.215,-0.72 -0.434,-1.441 -0.652,-2.168 -0.223,-0.724 -0.612,-1.394 -0.918,-2.092 l -0.502,-1.028 -0.623,-0.959 c -0.434,-0.626 -0.815,-1.287 -1.319,-1.848 -0.494,-0.567 -1.002,-1.117 -1.506,-1.649 -0.527,-0.512 -1.113,-0.952 -1.656,-1.414 -0.529,-0.477 -1.129,-0.851 -1.722,-1.193 -0.6,-0.341 -1.147,-0.721 -1.77,-0.946 -0.6,-0.256 -1.178,-0.514 -1.746,-0.732 -0.596,-0.145 -1.168,-0.287 -1.721,-0.42 -1.082,-0.315 -2.162,-0.233 -3.045,-0.318 -0.941,0.089 -1.74,0.185 -2.349,0.312 -1.18,0.405 -1.85,0.67 -1.85,0.67"
           style="fill:#949595;fill-opacity:1;fill-rule:nonzero;stroke:none"
           id="path178478"
           inkscape:connector-curvature="0" /><path
           d="m 187.815,477.085 c 0,0 -0.063,0.174 -0.183,0.502 -0.095,0.336 -0.234,0.842 -0.272,1.503 -0.071,1.308 0.071,3.266 0.998,5.381 0.898,2.091 2.447,4.448 4.884,6.135 1.211,0.828 2.589,1.547 4.088,1.942 1.493,0.413 3.067,0.6 4.623,0.563 1.515,-0.048 3.138,-0.294 4.587,-0.797 1.47,-0.497 2.818,-1.253 3.981,-2.154 2.334,-1.825 3.755,-4.249 4.555,-6.381 0.802,-2.157 0.883,-4.109 0.75,-5.416 -0.074,-0.66 -0.223,-1.162 -0.362,-1.486 -0.134,-0.324 -0.23,-0.484 -0.23,-0.484 0,0 0.293,0.71 0.237,1.985 -0.018,1.268 -0.444,3.063 -1.345,5.005 -0.899,1.943 -2.446,3.977 -4.569,5.485 -1.058,0.76 -2.28,1.336 -3.571,1.759 -1.314,0.427 -2.645,0.615 -4.078,0.646 -2.799,0.105 -5.565,-0.62 -7.761,-2.021 -2.196,-1.398 -3.863,-3.333 -4.849,-5.23 -1.002,-1.891 -1.499,-3.664 -1.579,-4.934 -0.1,-1.268 0.096,-2.003 0.096,-2.003"
           style="fill:#949595;fill-opacity:1;fill-rule:nonzero;stroke:none"
           id="path178480"
           inkscape:connector-curvature="0" /><path
           d="m 265.193,330.126 c 0,0 0.564,0.116 1.554,0.272 0.485,0.104 1.056,0.28 1.705,0.45 0.636,0.248 1.366,0.486 2.125,0.827 0.756,0.348 1.561,0.738 2.367,1.238 0.836,0.441 1.608,1.088 2.439,1.679 0.391,0.332 0.786,0.67 1.188,1.012 0.389,0.353 0.74,0.758 1.128,1.13 0.394,0.363 0.729,0.787 1.065,1.213 0.328,0.432 0.714,0.823 0.985,1.297 l 0.909,1.358 c 0.271,0.465 0.506,0.956 0.759,1.429 0.541,0.932 0.844,1.956 1.267,2.896 0.261,0.994 0.621,1.933 0.816,2.867 0.149,0.937 0.399,1.814 0.488,2.648 0.077,0.833 0.177,1.599 0.265,2.287 0.059,0.684 0.043,1.285 0.066,1.783 0.034,0.993 0.076,1.572 0.076,1.572 0,0 0.118,-0.556 0.282,-1.549 0.071,-0.496 0.195,-1.101 0.263,-1.801 0.042,-0.701 0.084,-1.497 0.104,-2.37 0.026,-0.871 -0.11,-1.811 -0.194,-2.814 -0.108,-1 -0.38,-2.034 -0.617,-3.112 -0.402,-1.027 -0.634,-2.169 -1.219,-3.188 -0.263,-0.521 -0.509,-1.055 -0.794,-1.569 l -0.966,-1.494 c -0.305,-0.511 -0.73,-0.934 -1.096,-1.397 -0.377,-0.457 -0.754,-0.91 -1.188,-1.301 -0.806,-0.849 -1.731,-1.539 -2.622,-2.196 -0.925,-0.608 -1.823,-1.197 -2.762,-1.591 -0.9,-0.46 -1.81,-0.76 -2.65,-1.017 -0.837,-0.268 -1.642,-0.376 -2.337,-0.503 -0.719,-0.056 -1.334,-0.125 -1.834,-0.141 -0.998,0.039 -1.572,0.085 -1.572,0.085"
           style="fill:#949595;fill-opacity:1;fill-rule:nonzero;stroke:none"
           id="path178482"
           inkscape:connector-curvature="0" /><path
           d="m 161.492,515.837 c 0,0 0.045,0.099 0.13,0.283 0.101,0.179 0.165,0.474 0.406,0.783 0.212,0.335 0.503,0.726 0.903,1.099 0.397,0.381 0.894,0.777 1.499,1.099 0.591,0.346 1.291,0.618 2.051,0.824 0.762,0.202 1.588,0.333 2.448,0.338 1.718,0.033 3.586,-0.322 5.248,-1.228 0.824,-0.43 1.608,-1.076 2.202,-1.709 0.699,-0.732 1.105,-1.486 1.525,-2.251 0.742,-1.55 1.114,-3.103 1.188,-4.444 0.094,-1.339 -0.086,-2.468 -0.36,-3.2 -0.134,-0.366 -0.285,-0.638 -0.418,-0.797 -0.129,-0.159 -0.194,-0.244 -0.194,-0.244 0,0 0.21,0.396 0.266,1.123 0.064,0.724 -0.023,1.766 -0.316,2.964 -0.286,1.197 -0.81,2.548 -1.571,3.829 -0.387,0.615 -0.863,1.284 -1.355,1.75 -0.573,0.576 -1.139,1.017 -1.842,1.364 -1.342,0.761 -2.925,1.091 -4.402,1.208 -1.487,0.102 -2.885,-0.122 -4.027,-0.506 -0.572,-0.191 -1.073,-0.436 -1.501,-0.687 -0.433,-0.257 -0.777,-0.517 -1.046,-0.757 -0.293,-0.221 -0.472,-0.478 -0.62,-0.615 -0.14,-0.147 -0.214,-0.226 -0.214,-0.226"
           style="fill:#949595;fill-opacity:1;fill-rule:nonzero;stroke:none"
           id="path178484"
           inkscape:connector-curvature="0" /><path
           d="m 258.339,519.914 c 0,0 0.057,0.143 0.165,0.412 0.11,0.261 0.287,0.672 0.595,1.125 0.588,0.917 1.702,2.171 3.47,3.014 1.739,0.873 4.029,1.328 6.442,1.207 2.41,-0.1 4.967,-0.762 7.256,-2.022 0.545,-0.306 1.16,-0.717 1.626,-1.073 0.523,-0.411 1.04,-0.851 1.465,-1.328 0.886,-0.954 1.593,-2.024 2.13,-3.118 1.057,-2.205 1.431,-4.463 1.44,-6.359 0.015,-1.904 -0.357,-3.461 -0.725,-4.491 -0.383,-1.038 -0.825,-1.498 -0.825,-1.498 0,0 0.319,0.545 0.502,1.591 0.212,1.033 0.285,2.56 0.05,4.335 -0.227,1.767 -0.759,3.808 -1.837,5.696 -0.523,0.947 -1.189,1.849 -1.988,2.631 -0.404,0.401 -0.815,0.758 -1.26,1.093 -0.512,0.377 -0.928,0.637 -1.458,0.925 -4.077,2.195 -9.108,2.554 -12.392,1.392 -1.649,-0.576 -2.897,-1.443 -3.599,-2.229 -0.72,-0.764 -1.057,-1.303 -1.057,-1.303"
           style="fill:#949595;fill-opacity:1;fill-rule:nonzero;stroke:none"
           id="path178486"
           inkscape:connector-curvature="0" /><path
           d="m 419.141,411.305 c 0,0 0.541,-0.648 1.49,-1.783 0.469,-0.57 0.908,-1.372 1.488,-2.247 0.529,-0.902 1.041,-1.973 1.506,-3.176 0.193,-0.62 0.398,-1.264 0.607,-1.932 0.215,-0.668 0.278,-1.396 0.43,-2.129 0.17,-0.732 0.211,-1.5 0.229,-2.289 0.039,-0.789 0.08,-1.599 -0.053,-2.412 -0.108,-1.648 -0.524,-3.3 -1.025,-4.957 -0.34,-0.794 -0.686,-1.592 -1.03,-2.395 -0.34,-0.805 -0.867,-1.513 -1.295,-2.275 -0.425,-0.769 -0.963,-1.453 -1.525,-2.114 -0.565,-0.655 -1.051,-1.382 -1.674,-1.964 -1.226,-1.181 -2.406,-2.382 -3.74,-3.296 -0.645,-0.481 -1.281,-0.955 -1.903,-1.418 -0.666,-0.394 -1.318,-0.776 -1.951,-1.149 -0.636,-0.371 -1.252,-0.729 -1.847,-1.077 -0.61,-0.321 -1.223,-0.581 -1.801,-0.859 -1.154,-0.539 -2.207,-1.045 -3.178,-1.404 -0.974,-0.337 -1.828,-0.633 -2.529,-0.874 -1.402,-0.461 -2.207,-0.726 -2.207,-0.726 0,0 0.752,0.386 2.07,1.058 0.662,0.323 1.463,0.715 2.383,1.166 0.904,0.474 1.875,1.103 2.977,1.697 0.544,0.313 1.123,0.611 1.691,0.971 0.555,0.381 1.127,0.776 1.717,1.181 0.586,0.407 1.187,0.824 1.8,1.25 0.577,0.474 1.163,0.956 1.76,1.449 1.26,0.916 2.295,2.132 3.459,3.247 0.584,0.556 1.024,1.245 1.545,1.863 0.522,0.624 1.014,1.271 1.401,1.988 0.4,0.7 0.904,1.353 1.226,2.091 0.326,0.734 0.654,1.466 0.977,2.193 0.228,0.761 0.453,1.515 0.675,2.261 0.25,0.74 0.266,1.52 0.413,2.263 0.164,0.747 0.128,1.494 0.158,2.225 0.041,0.733 0.058,1.453 -0.051,2.147 -0.092,0.692 -0.096,1.386 -0.254,2.028 -0.152,0.647 -0.297,1.271 -0.437,1.872 -0.377,1.166 -0.737,2.259 -1.131,3.182 -0.451,0.899 -0.776,1.729 -1.17,2.355 -0.766,1.265 -1.201,1.989 -1.201,1.989"
           style="fill:#949595;fill-opacity:1;fill-rule:nonzero;stroke:none"
           id="path178488"
           inkscape:connector-curvature="0" /></g></g></g></svg>